<svg width="298" height="82" viewBox="0 0 298 82" fill="none" xmlns="http://www.w3.org/2000/svg">
<path d="M122.962 41.952C122.288 40.6549 121.353 39.6821 120.156 39.0336C118.958 38.3601 117.574 38.0233 116.003 38.0233C114.281 38.0233 112.747 38.41 111.4 39.1832C110.053 39.9565 108.993 41.054 108.22 42.4759C107.472 43.8977 107.098 45.544 107.098 47.4148C107.098 49.2856 107.472 50.9444 108.22 52.3911C108.993 53.8129 110.053 54.9105 111.4 55.6838C112.747 56.457 114.281 56.8437 116.003 56.8437C118.322 56.8437 120.206 56.1951 121.652 54.898C123.099 53.6009 123.985 51.8424 124.309 49.6223H114.543V46.2175H128.874V49.5475C128.599 51.568 127.876 53.4263 126.704 55.1225C125.556 56.8187 124.047 58.1782 122.176 59.2009C120.33 60.1986 118.272 60.6975 116.003 60.6975C113.558 60.6975 111.326 60.1363 109.305 59.0138C107.285 57.8664 105.676 56.2824 104.478 54.2619C103.306 52.2415 102.72 49.9591 102.72 47.4148C102.72 44.8705 103.306 42.5881 104.478 40.5676C105.676 38.5472 107.285 36.9757 109.305 35.8532C111.351 34.7058 113.583 34.1321 116.003 34.1321C118.771 34.1321 121.228 34.818 123.374 36.1899C125.544 37.5369 127.115 39.4576 128.088 41.952H122.962ZM151.751 39.8567V60.473H147.486V58.041C146.812 58.8891 145.927 59.5626 144.829 60.0614C143.757 60.5354 142.609 60.7724 141.387 60.7724C139.766 60.7724 138.307 60.4356 137.009 59.7621C135.737 59.0886 134.727 58.0909 133.979 56.7688C133.255 55.4468 132.894 53.8504 132.894 51.9796V39.8567H137.122V51.3435C137.122 53.1893 137.583 54.6112 138.506 55.6089C139.429 56.5817 140.689 57.0682 142.285 57.0682C143.882 57.0682 145.141 56.5817 146.064 55.6089C147.012 54.6112 147.486 53.1893 147.486 51.3435V39.8567H151.751ZM164.863 60.8098C163.241 60.8098 161.782 60.5229 160.485 59.9492C159.213 59.3505 158.202 58.5523 157.454 57.5546C156.706 56.5319 156.307 55.3969 156.257 54.1497H160.672C160.747 55.0227 161.158 55.7586 161.907 56.3572C162.68 56.931 163.64 57.2178 164.788 57.2178C165.985 57.2178 166.908 56.9933 167.556 56.5443C168.23 56.0704 168.567 55.4717 168.567 54.7484C168.567 53.9751 168.193 53.4014 167.444 53.0272C166.721 52.653 165.561 52.2415 163.965 51.7925C162.418 51.3684 161.158 50.9568 160.185 50.5577C159.213 50.1586 158.365 49.5475 157.641 48.7244C156.943 47.9012 156.594 46.8161 156.594 45.4691C156.594 44.3716 156.918 43.3738 157.566 42.4759C158.215 41.5529 159.138 40.8295 160.335 40.3057C161.557 39.7819 162.954 39.52 164.526 39.52C166.871 39.52 168.754 40.1186 170.176 41.316C171.622 42.4883 172.396 44.0972 172.495 46.1426H168.23C168.155 45.2197 167.781 44.4839 167.107 43.9351C166.434 43.3863 165.524 43.1119 164.376 43.1119C163.254 43.1119 162.393 43.324 161.794 43.748C161.196 44.1721 160.896 44.7333 160.896 45.4317C160.896 45.9805 161.096 46.442 161.495 46.8161C161.894 47.1903 162.381 47.4896 162.954 47.7141C163.528 47.9137 164.376 48.1756 165.499 48.4999C166.995 48.899 168.217 49.3105 169.165 49.7346C170.138 50.1337 170.974 50.7324 171.672 51.5306C172.371 52.3288 172.732 53.3889 172.757 54.7109C172.757 55.8833 172.433 56.931 171.785 57.8539C171.136 58.7768 170.213 59.5002 169.016 60.024C167.843 60.5479 166.459 60.8098 164.863 60.8098ZM188.03 39.52C189.601 39.52 190.998 39.8567 192.22 40.5302C193.468 41.2037 194.44 42.2015 195.139 43.5235C195.862 44.8455 196.224 46.442 196.224 48.3128V60.473H191.996V48.9488C191.996 47.103 191.534 45.6936 190.612 44.7208C189.689 43.7231 188.429 43.2242 186.833 43.2242C185.236 43.2242 183.964 43.7231 183.016 44.7208C182.093 45.6936 181.632 47.103 181.632 48.9488V60.473H177.366V32.7851H181.632V42.2514C182.355 41.3783 183.266 40.7048 184.363 40.2309C185.486 39.7569 186.708 39.52 188.03 39.52ZM220.485 41.952C219.812 40.6549 218.876 39.6821 217.679 39.0336C216.482 38.3601 215.097 38.0233 213.526 38.0233C211.805 38.0233 210.271 38.41 208.924 39.1832C207.577 39.9565 206.516 41.054 205.743 42.4759C204.995 43.8977 204.621 45.544 204.621 47.4148C204.621 49.2856 204.995 50.9444 205.743 52.3911C206.516 53.8129 207.577 54.9105 208.924 55.6838C210.271 56.457 211.805 56.8437 213.526 56.8437C215.846 56.8437 217.729 56.1951 219.176 54.898C220.622 53.6009 221.508 51.8424 221.832 49.6223H212.066V46.2175H226.397V49.5475C226.122 51.568 225.399 53.4263 224.227 55.1225C223.079 56.8187 221.57 58.1782 219.699 59.2009C217.854 60.1986 215.796 60.6975 213.526 60.6975C211.081 60.6975 208.849 60.1363 206.828 59.0138C204.808 57.8664 203.199 56.2824 202.002 54.2619C200.829 52.2415 200.243 49.9591 200.243 47.4148C200.243 44.8705 200.829 42.5881 202.002 40.5676C203.199 38.5472 204.808 36.9757 206.828 35.8532C208.874 34.7058 211.106 34.1321 213.526 34.1321C216.295 34.1321 218.752 34.818 220.897 36.1899C223.067 37.5369 224.638 39.4576 225.611 41.952H220.485ZM249.275 39.8567V60.473H245.009V58.041C244.336 58.8891 243.45 59.5626 242.353 60.0614C241.28 60.5354 240.133 60.7724 238.91 60.7724C237.289 60.7724 235.83 60.4356 234.533 59.7621C233.26 59.0886 232.25 58.0909 231.502 56.7688C230.778 55.4468 230.417 53.8504 230.417 51.9796V39.8567H234.645V51.3435C234.645 53.1893 235.106 54.6112 236.029 55.6089C236.952 56.5817 238.212 57.0682 239.808 57.0682C241.405 57.0682 242.664 56.5817 243.587 55.6089C244.535 54.6112 245.009 53.1893 245.009 51.3435V39.8567H249.275ZM262.386 60.8098C260.764 60.8098 259.305 60.5229 258.008 59.9492C256.736 59.3505 255.726 58.5523 254.977 57.5546C254.229 56.5319 253.83 55.3969 253.78 54.1497H258.195C258.27 55.0227 258.681 55.7586 259.43 56.3572C260.203 56.931 261.163 57.2178 262.311 57.2178C263.508 57.2178 264.431 56.9933 265.08 56.5443C265.753 56.0704 266.09 55.4717 266.09 54.7484C266.09 53.9751 265.716 53.4014 264.967 53.0272C264.244 52.653 263.084 52.2415 261.488 51.7925C259.941 51.3684 258.681 50.9568 257.709 50.5577C256.736 50.1586 255.888 49.5475 255.164 48.7244C254.466 47.9012 254.117 46.8161 254.117 45.4691C254.117 44.3716 254.441 43.3738 255.09 42.4759C255.738 41.5529 256.661 40.8295 257.858 40.3057C259.081 39.7819 260.477 39.52 262.049 39.52C264.394 39.52 266.277 40.1186 267.699 41.316C269.146 42.4883 269.919 44.0972 270.019 46.1426H265.753C265.678 45.2197 265.304 44.4839 264.631 43.9351C263.957 43.3863 263.047 43.1119 261.899 43.1119C260.777 43.1119 259.916 43.324 259.318 43.748C258.719 44.1721 258.42 44.7333 258.42 45.4317C258.42 45.9805 258.619 46.442 259.018 46.8161C259.417 47.1903 259.904 47.4896 260.477 47.7141C261.051 47.9137 261.899 48.1756 263.022 48.4999C264.518 48.899 265.741 49.3105 266.689 49.7346C267.661 50.1337 268.497 50.7324 269.195 51.5306C269.894 52.3288 270.256 53.3889 270.28 54.7109C270.28 55.8833 269.956 56.931 269.308 57.8539C268.659 58.7768 267.736 59.5002 266.539 60.024C265.366 60.5479 263.982 60.8098 262.386 60.8098ZM285.553 39.52C287.124 39.52 288.521 39.8567 289.744 40.5302C290.991 41.2037 291.964 42.2015 292.662 43.5235C293.385 44.8455 293.747 46.442 293.747 48.3128V60.473H289.519V48.9488C289.519 47.103 289.058 45.6936 288.135 44.7208C287.212 43.7231 285.952 43.2242 284.356 43.2242C282.759 43.2242 281.487 43.7231 280.539 44.7208C279.616 45.6936 279.155 47.103 279.155 48.9488V60.473H274.889V32.7851H279.155V42.2514C279.878 41.3783 280.789 40.7048 281.886 40.2309C283.009 39.7569 284.231 39.52 285.553 39.52Z" fill="white"/>
<rect opacity="0.2" y="7" width="74.8323" height="74.8323" rx="37.4161" fill="white"/>
<rect width="49.8882" height="49.8882" rx="24.9441" fill="white"/>
<circle cx="24.5" cy="24.5" r="19.5" fill="#D9D9D9"/>
<circle cx="25" cy="25" r="15" fill="#AFACAC"/>
<circle cx="11" cy="11" r="11" transform="matrix(-1 0 0 1 36 14)" fill="#191616"/>
</svg>
